<?xml version="1.0" encoding="UTF-8" standalone="no"?>
<!-- Created with Inkscape (http://www.inkscape.org/) -->

<svg
   xmlns:dc="http://purl.org/dc/elements/1.1/"
   xmlns:cc="http://creativecommons.org/ns#"
   xmlns:rdf="http://www.w3.org/1999/02/22-rdf-syntax-ns#"
   xmlns:svg="http://www.w3.org/2000/svg"
   xmlns="http://www.w3.org/2000/svg"
   xmlns:sodipodi="http://sodipodi.sourceforge.net/DTD/sodipodi-0.dtd"
   xmlns:inkscape="http://www.inkscape.org/namespaces/inkscape"
   width="1024px"
   height="768px"
   id="svg15782"
   version="1.1"
   inkscape:version="0.48.1 r9760">
  <defs
     id="defs15784">
    <marker
       style="overflow:visible"
       id="Arrow2Mend"
       refX="0"
       refY="0"
       orient="auto"
       inkscape:stockid="Arrow2Mend">
      <path
         transform="scale(-0.6,-0.6)"
         d="M 8.7185878,4.0337352 -2.2072895,0.01601326 8.7185884,-4.0017078 c -1.7454984,2.3720609 -1.7354408,5.6174519 -6e-7,8.035443 z"
         style="font-size:12px;fill-rule:evenodd;stroke-width:0.625;stroke-linejoin:round"
         id="path4038" />
    </marker>
  </defs>
  <sodipodi:namedview
     id="base"
     pagecolor="#ffffff"
     bordercolor="#666666"
     borderopacity="1.0"
     inkscape:pageopacity="0.0"
     inkscape:pageshadow="2"
     inkscape:zoom="0.9049904"
     inkscape:cx="513"
     inkscape:cy="380"
     inkscape:current-layer="layer1"
     inkscape:document-units="px"
     showgrid="false"
     inkscape:window-width="1072"
     inkscape:window-height="1146"
     inkscape:window-x="0"
     inkscape:window-y="24"
     inkscape:window-maximized="0" />
  <metadata
     id="metadata15787">
    <rdf:RDF>
      <cc:Work
         rdf:about="">
        <dc:format>image/svg+xml</dc:format>
        <dc:type
           rdf:resource="http://purl.org/dc/dcmitype/StillImage" />
        <dc:title></dc:title>
      </cc:Work>
    </rdf:RDF>
  </metadata>
  <g
     id="layer1"
     inkscape:label="Layer 1"
     inkscape:groupmode="layer">
    <g
       transform="matrix(1.2782043,0,0,1.2782043,12.893751,-97.573333)"
       id="layer1-7"
       inkscape:label="Layer 1">
      <g
         id="g5245">
        <g
           id="g4875"
           transform="matrix(0.77244113,0,0,0.77244113,192.28313,-14.823724)">
          <g
             transform="matrix(-0.84211607,0.17678029,0.17678029,0.84211607,677.84094,268.60123)"
             id="g2906"
             style="overflow:visible">
            <path
               d="m 259.076,17.719 c -4.01,-0.256 -2.042,5.467 -6.258,5.006 -2.182,-2.162 -1.385,-7.737 1.251,-8.761 0.281,0.971 0.035,2.469 1.252,2.503 0.28,-0.97 0.034,-2.468 1.251,-2.503 0.299,1.786 2.062,2.111 2.504,3.755 z"
               id="path3"
               inkscape:connector-curvature="0" />
            <path
               d="m 173.969,17.719 c -1.584,1.436 -9.868,2.515 -11.265,0 4.306,0.479 7.803,-6.286 11.265,-2.503 -1.511,0.264 -0.771,1.389 0,2.503 z"
               id="path5"
               inkscape:connector-curvature="0" />
            <path
               d="m 240.303,20.221 c -1.901,1.276 -8.113,-1.155 -10.014,-3.754 5.03,-0.44 9.158,0.02 10.014,3.754 z"
               id="path7"
               inkscape:connector-curvature="0" />
            <path
               d="m 290.365,57.769 c 1.164,-2.922 4.529,-10.066 0,-5.006 -1.437,-2.351 -0.207,-10.399 5.006,-10.013 0.505,7.179 0.247,13.597 -5.006,15.019 z"
               id="path9"
               inkscape:connector-curvature="0" />
            <path
               d="m 112.876,15.406 c -6.257,0 -12.516,0 -18.773,0 -0.743,-0.873 29.706,-4.351 18.773,0 z"
               id="path11"
               inkscape:connector-curvature="0" />
            <path
               d="m 369.214,86.556 c -0.326,-1.948 -2.745,-0.868 -3.754,0 3.313,-2.11 1.396,-9.449 3.754,-12.516 1.525,1.894 2.458,10.78 0,12.516 z"
               id="path13"
               inkscape:connector-curvature="0" />
            <path
               d="m 295.371,89.058 c 1.109,-4.731 0.937,-10.745 3.756,-13.767 -0.142,5.699 -0.024,11.657 -3.756,13.767 z"
               id="path15"
               inkscape:connector-curvature="0" />
            <path
               d="m 191.491,85.303 c -7.078,-0.848 -17.994,2.142 -21.276,-2.503 9.66,0.83 16.427,-3.137 21.276,2.503 z"
               id="path17"
               inkscape:connector-curvature="0" />
            <path
               d="m 334.171,125.354 c -1.795,-1.543 -2.371,-4.304 -2.503,-7.51 2.142,-1.195 2.521,-4.152 5.006,-5.005 -1.2,3.807 2.68,12.692 -2.503,12.515 z"
               id="path19"
               inkscape:connector-curvature="0" />
            <path
               d="m 289.113,124.103 c 0.39,-3.784 -1.39,-9.734 2.503,-10.013 -1.03,3.141 2.434,10.775 -2.503,10.013 z"
               id="path21"
               inkscape:connector-curvature="0" />
            <path
               d="m 188.987,126.606 c -4.574,0.851 -9.1,1.746 -15.019,1.251 1.243,-3.813 9.789,-6.836 13.769,-3.754 -7.763,0.486 0.084,0.641 1.25,2.503 z"
               id="path23"
               inkscape:connector-curvature="0" />
            <path
               d="m 200.253,169.159 c -0.073,-5.496 0.504,-10.345 2.503,-13.768 -1.261,4.163 2.766,13.615 -2.503,13.768 z"
               id="path25"
               inkscape:connector-curvature="0" />
            <path
               d="m 158.95,46.505 c 5.797,0.809 10.295,-4.935 15.019,0 -5.767,-1.534 -11.103,3.833 -15.019,0 z"
               id="path27"
               inkscape:connector-curvature="0" />
            <path
               d="m 46.229,20.57 c 8.204,0.277 14.635,-1.219 21.277,-2.503 -2.471,4.077 -20.887,4.58 -21.277,2.503 z"
               id="path29"
               inkscape:connector-curvature="0" />
            <path
               d="m 281.604,126.606 c 1.312,-2.515 0.599,-13.491 2.503,-11.265 0.411,4.236 -0.976,13.112 -2.503,11.265 z"
               id="path31"
               inkscape:connector-curvature="0" />
            <path
               d="m 285.358,129.109 c 0.745,-6.283 0.367,-10.093 1.252,-13.768 2.044,2.957 2.173,12.365 -1.252,13.768 z"
               id="path33"
               inkscape:connector-curvature="0" />
            <path
               d="m 367.961,126.604 c -5.002,1.868 -15.024,1.868 -20.025,0 -1.197,-7.076 1.841,-16.464 0,-20.024 -46.83,1.298 -86.581,1.938 -135.169,1.251 20.958,-7.99 48.129,-3.82 75.094,-5.007 43.017,-1.89 87.378,1.49 122.653,-7.509 4.33,-5.413 3.127,-19.587 -2.503,-22.527 2.882,6.014 0.101,13.255 -2.503,17.521 -8.105,0.18 -16.143,0.289 -21.276,-2.502 0.216,-7.711 -1.787,-17.64 5.006,-18.773 -31.898,1.353 -56.328,-3.795 -86.357,-1.252 0.331,5.869 3.998,16.742 -2.503,18.773 1.253,-5.3 2.223,-13.686 0,-18.773 -29.323,-3.635 -65.038,-0.877 -91.364,-7.51 62.248,-1.654 128.882,7.685 183.979,1.252 -0.668,-4.338 1.859,-11.87 -2.503,-12.516 0.728,4.898 -1.077,7.267 -2.503,10.013 -8.161,-0.962 -16.246,1.611 -21.275,0 0.783,-3.804 -1.603,-10.78 1.252,-12.516 -5.466,15.413 17.483,12.443 20.023,5.006 -6.653,-8.223 -20.667,-9.609 -32.541,-11.264 -47.229,-6.583 -111.254,0.445 -155.193,-10.013 36.4,2.273 86.049,1.268 121.401,2.503 7.167,0.251 22.518,6.253 21.276,-7.509 -3.388,4.539 -11.951,3.901 -20.025,3.754 -2.494,-1.276 2.634,-8.914 -1.251,-11.264 C 270.547,12.396 207.734,3.394 153.943,6.454 112.442,8.813 71.442,6.332 36.297,11.46 23.831,13.277 11.674,18.921 0.002,16.466 22.247,8.671 47.515,6.471 75.095,5.203 107.888,3.696 144.37,-1.015 176.472,0.196 c 6.743,0.256 13.555,3.074 20.025,3.756 52.454,5.521 106.536,1.751 148.937,17.521 3.519,3.539 1.673,11.946 2.503,15.02 22.246,3.101 56.888,-0.582 48.811,28.785 5.949,-0.524 9.027,1.819 13.769,2.503 4.653,6.229 8.617,18.292 5.005,28.787 -7.016,9.671 -28.406,4.97 -41.302,8.762 7.52,10.533 1.729,26.649 -6.257,32.54 -31.736,6.23 -69.292,6.638 -106.385,7.51 5.988,5.631 10.071,17.214 6.259,28.786 -27.447,16.401 -68.675,7.55 -100.125,12.516 -15.694,2.479 -21.298,6.535 -33.792,7.51 -54.56,4.252 -64.943,-32.562 -103.881,-47.561 -5.108,-1.966 -11.236,-2.437 -16.271,-3.754 -3.554,-0.933 -13.292,0.196 -13.767,-7.51 0.09,-5.264 13.964,2.216 15.02,0 -1.541,-2.722 -13.286,-6.875 -7.511,-8.762 35.521,12.869 61.882,56.016 106.385,61.327 22.711,2.71 44.086,-4.475 67.584,-6.259 25.915,-1.966 51.778,2.017 75.094,-6.258 -5.259,-2.249 -14.193,-0.824 -20.024,-2.503 -0.108,-7.2 -0.271,-14.455 1.252,-20.025 6.923,-2.259 13.888,0.48 21.276,1.252 3.234,5.568 2.444,14.378 3.754,18.773 17.154,-49.229 -104.771,-10.208 -123.904,-36.295 32.543,9.766 100.991,5.861 148.937,3.754 34.288,-1.507 102.811,3.411 81.353,-31.289 2.749,4.647 1.047,13.937 -1.256,17.522 z M 326.659,17.719 c -1.144,2.194 -0.43,6.245 -2.503,7.51 4.209,1.758 10.931,2.934 15.021,1.251 1.364,-8.457 -6.901,-7.285 -12.518,-8.761 z m 60.076,55.068 c 0,4.59 0,9.179 0,13.768 4.332,1.925 11.41,1.106 17.522,1.252 8.308,-11.294 -5.278,-20.534 -17.522,-15.02 z m -35.044,37.548 c -2.397,3.025 -0.789,10.057 -1.251,15.019 4.589,0 9.178,0 13.768,0 9.719,-7.536 -0.683,-22.006 -12.517,-15.019 z m -111.388,45.057 c -1.666,3.758 -1.273,9.576 -1.252,15.021 7.063,-0.39 11.13,2.219 18.773,1.251 2.625,-3.851 1.255,-12.357 -1.252,-15.021 -6.133,0.292 -9.475,-2.205 -16.269,-1.251 z"
               id="path35"
               inkscape:connector-curvature="0" />
          </g>
          <g
             transform="matrix(-0.33586562,-0.48446448,0.48446448,-0.33586562,255.63699,813.79591)"
             id="g2982"
             style="overflow:visible">
            <path
               d="m 0,129.734 c 5.056,1.287 3.347,9.338 10.379,8.649 2.95,-0.709 -0.364,-2.23 0,-5.189 4.51,2.985 8.768,6.223 8.649,13.838 -6.934,-2.29 -11.824,-6.629 -19.028,-8.649 0,-2.882 0,-5.767 0,-8.649 z"
               id="path3-4"
               style="fill-rule:evenodd"
               inkscape:connector-curvature="0" />
            <path
               d="m 19.028,131.464 c 3.663,16.518 24.55,15.811 34.596,25.947 -11.769,-1.308 -20.868,-9.217 -29.407,-8.649 0.714,-8.21 -5.903,-9.088 -5.189,-17.298 z"
               id="path5-0"
               style="fill-rule:evenodd"
               inkscape:connector-curvature="0" />
            <path
               d="m 247.361,153.952 c 9.951,-0.126 16.131,18.447 20.758,29.405 -8.991,-7.729 -11.192,-22.252 -20.758,-29.405 z"
               id="path7-9"
               style="fill-rule:evenodd"
               inkscape:connector-curvature="0" />
            <path
               d="m 385.745,205.845 c 4.146,3.703 -5.014,8.726 -10.379,8.649 1.757,-4.586 7.999,-4.686 10.379,-8.649 z"
               id="path9-4"
               style="fill-rule:evenodd"
               inkscape:connector-curvature="0" />
            <path
               d="m 321.743,243.901 c 4.889,3.89 -2.845,9.726 -3.46,13.838 -4.889,-3.89 2.842,-9.726 3.46,-13.838 z"
               id="path11-8"
               style="fill-rule:evenodd"
               inkscape:connector-curvature="0" />
            <path
               d="m 0,153.952 c 10.402,3.682 40.146,8.392 53.624,13.838 40.282,16.275 58.092,66.777 124.546,51.894 -6.811,-5.875 -15.101,-10.27 -22.488,-15.567 13.222,1.081 20.92,12.012 34.596,17.297 7.584,2.931 18.474,2.089 27.677,6.92 11.564,6.071 21.198,19.362 32.866,27.677 24.197,17.243 40.023,31.271 64.002,6.919 -3.854,7.102 -9.293,12.617 -19.027,13.838 18.444,3.007 35.974,-11.953 36.325,-25.946 0.427,-16.97 -25.394,-39.572 -36.325,-57.084 -19.65,-31.474 -23.18,-54.689 -36.326,-79.57 5.988,-3.042 6.72,13.99 13.838,15.568 7.606,-5.078 5.466,-19.906 15.568,-22.487 -1.614,8.764 -4.848,15.91 -6.918,24.217 5.624,3.309 9.881,3.427 13.838,1.73 6.081,-24.971 9.578,-51.964 32.865,-55.354 -13.657,11.844 -36.839,46.024 -15.568,65.732 14.236,-11.135 18.784,-31.958 34.597,-41.515 3.048,6.002 -1.768,7.836 8.648,5.189 -5.946,5.585 -16.236,6.826 -20.757,13.838 2.43,2.873 9.672,-4.067 17.297,-1.73 -15.773,4.983 -27.891,13.624 -31.135,31.137 1.87,12.262 21.477,13.787 25.946,32.865 1.311,5.597 -2.26,12.064 -1.729,17.299 2.02,19.947 29.403,38.392 39.785,15.568 2.611,5.559 -0.23,6.872 5.189,6.919 8.24,-0.327 15.966,-9.178 17.298,-20.758 C 413.257,158.717 402.915,73.221 387.474,50.164 381.857,41.777 370.48,34.865 358.068,32.867 299.823,23.487 240.399,53.523 185.089,53.624 116.64,53.749 58.111,15.278 0,5.189 0,3.459 0,1.729 0,0 c 28.95,8.619 55.573,15.987 83.03,24.217 25.389,7.61 52.703,19.662 83.03,22.488 34.634,3.226 63.573,-4.378 93.409,-10.379 44.027,-8.854 116.437,-25.423 136.653,13.838 10.15,19.708 10.938,52.111 13.839,74.381 3.635,27.895 10.597,61.064 5.189,83.03 -1.816,7.374 -10.973,14.042 -17.298,25.946 -5.971,11.24 -8.695,21.203 -15.568,25.947 -4.525,3.125 -12.553,0.71 -20.757,5.189 -8.051,4.396 -10.497,15.109 -22.488,19.028 -8.403,2.746 -20.753,1.121 -31.136,3.459 -12.255,2.761 -19.113,9.001 -27.677,8.649 -13.187,-0.541 -39.07,-11.738 -53.624,-22.488 -7.122,-5.26 -9.862,-15.02 -17.298,-20.757 C 181.946,231.443 126.512,234.907 96.867,221.411 74.727,211.331 64.076,185.845 46.703,178.167 33.106,172.16 11.336,173.103 0,169.52 0,164.33 0,159.141 0,153.952 z M 364.987,256.01 c 3.907,-6.804 8.095,-2.571 12.109,-8.649 2.249,4.296 -5.075,7.179 0,8.649 4.095,-6.283 10.517,-10.24 12.108,-19.028 -11.298,-0.811 -22.458,-1.761 -32.867,-3.46 -2.915,8.062 -3.552,24.269 8.65,22.488 z"
               id="path13-8"
               style="fill-rule:evenodd"
               inkscape:connector-curvature="0" />
            <path
               d="m 219.684,140.113 c 1.396,-5.323 10.558,10.831 10.379,1.729 6.086,5.444 12.56,10.504 13.838,20.758 -9.095,-6.473 -15.122,-16.014 -24.217,-22.487 z"
               id="path15-2"
               style="fill-rule:evenodd"
               inkscape:connector-curvature="0" />
            <path
               d="m 164.331,162.601 c 1.46,-2.458 8.919,3.65 10.379,6.919 2.568,-0.755 -0.683,-2.213 0,-5.189 7.596,6.242 14.36,13.316 22.487,19.027 -10.021,-0.957 -25.064,-11.824 -32.866,-20.757 z"
               id="path17-4"
               style="fill-rule:evenodd"
               inkscape:connector-curvature="0" />
            <path
               d="m 207.575,138.383 c -6.535,-3.267 -16.759,-2.845 -19.027,-10.379 7.358,-3.752 17.359,2.874 19.027,10.379 z"
               id="path19-5"
               style="fill-rule:evenodd"
               inkscape:connector-curvature="0" />
          </g>
          <g
             transform="matrix(0.94235565,0.33461296,-0.33461296,0.94235565,-172.81213,169.56374)"
             id="g3028"
             style="overflow:visible">
            <path
               d="m 361.405,18.798 c 0.183,3.935 -2.72,8.736 0.351,11.859 0.581,-1.918 2.404,-2.862 1.882,-1.278 3.681,-0.369 -0.205,-4.866 1.708,-7.206 -2.92,-0.673 -1.599,-2.539 -3.941,-3.375 z"
               id="path3-1"
               style="fill-rule:evenodd"
               inkscape:connector-curvature="0" />
            <path
               d="m 323.558,19.741 c -1.958,1.333 -1.575,8.389 0.848,10.972 2.115,-4.334 -1.078,-7.171 -0.848,-10.972 z"
               id="path5-7"
               style="fill-rule:evenodd"
               inkscape:connector-curvature="0" />
            <path
               d="m 373.979,89.99 c -3.714,1.095 -4.415,7.683 -4.585,10.26 3.952,-1.163 2.957,-7.273 4.585,-10.26 z"
               id="path7-1"
               style="fill-rule:evenodd"
               inkscape:connector-curvature="0" />
            <path
               d="m 321.973,72.5 c -2.411,1.459 -2.76,8.722 -4.691,12.531 4.131,-1.946 5.219,-9.416 4.691,-12.531 z"
               id="path9-1"
               style="fill-rule:evenodd"
               inkscape:connector-curvature="0" />
            <path
               d="m 270.184,127.438 c -4.752,9.811 -19.64,1.719 -24.672,-8 5.153,-4.7 10.842,-7.498 16.442,-10.608 2.885,6.549 11.457,11.943 8.23,18.608 z m -21.122,-6.01 c 4.796,2.948 9.505,7.987 15.086,8.457 11.746,-11.772 -8.793,-23.322 -15.086,-8.457 z"
               id="path11-5"
               style="fill-rule:evenodd"
               inkscape:connector-curvature="0" />
            <path
               d="m 253.646,111.17 c -2.67,-1.188 -6.125,1.818 -5.647,3.832 2.115,-0.45 3.98,-1.786 5.647,-3.832 z"
               id="path13-2"
               style="fill-rule:evenodd"
               inkscape:connector-curvature="0" />
            <path
               d="m 2.984,27.804 c 19.307,-0.023 39.398,-2.352 60.289,-3.524 19.921,-1.12 40.249,-0.095 60.179,-1.253 17.961,-1.042 38.129,-5.02 57.842,-9.561 20.324,-4.681 39.488,-12.878 57.559,-13.218 13.051,-0.246 29.157,4.603 43.064,4.315 9.181,-0.19 19.653,-2.939 30.252,-4.035 21.304,-2.203 44.943,3.055 65.787,5.389 12.365,1.385 29.646,4.323 29.889,13.256 0.524,19.289 -27.008,14.056 -36.328,16.955 -13.509,1.351 -27.446,-2.572 -41.397,-1.047 -7.37,0.806 -14.535,4.626 -21.66,5.351 -9.644,0.983 -20.19,-3.831 -27.589,5.527 42.685,20.521 87.223,26.455 127.475,49.3 5.767,34.513 -41.071,12.854 -62.277,7.074 -26.268,-7.161 -48.3,-16.484 -64.968,-13.095 -0.35,10.063 16.708,15.225 17.493,24.967 -10.56,23.538 -31.963,8.575 -42.513,32.15 -10.699,-0.138 -23.185,6.185 -32.632,6.199 -7.419,0.01 -15.125,-4.914 -25.168,-7.113 -23.599,-5.165 -59.929,-1.638 -81.196,-7.028 -22.981,-5.826 -35.052,-17.105 -52.047,-7.019 -1.775,-0.994 -3.549,-1.988 -5.325,-2.983 8.888,-5.595 19.42,-5.348 29.083,-8.189 0.795,-1.107 -2.106,-4.701 1.102,-4.046 -0.22,1.557 0.171,2.94 1.171,4.154 0.967,-2.802 -1.314,-8.549 1.813,-9.479 0.1,3.21 -0.55,6.631 1.843,9.196 21.318,-4.805 47.895,-5.07 65.761,-13.287 -18.073,0.189 -38.065,2.406 -58.541,-14.155 28.437,15.536 61.903,14.136 83.4,-1.064 -5.337,-3.071 -11.74,-3.682 -13.7,-8.847 1.478,0.828 2.957,1.657 4.436,2.487 -1.045,-6.191 -9.188,-14.342 -6.843,-18.997 -0.98,21.186 32.324,21.716 50.648,36.556 3.521,2.852 4.986,8.622 8.552,11.79 12.459,11.079 38.325,27.914 43.629,11.63 1.475,-4.527 -5.874,-17.871 -9.398,-22.763 C 255.812,93.882 245.354,80.87 236.692,74.84 221.175,64.04 201.021,63 197.47,47.026 c 5.059,3.557 6.6,8.104 13.593,11.116 3.937,-3.393 -0.896,-8.159 2.702,-8.98 0.786,2.865 0.175,8.934 4.612,8.417 3.356,-4.005 6.206,-9.805 10.124,-11.819 -2.581,5.461 -8.058,11.736 -6.682,16.081 14.856,5.141 28.032,15.589 34.783,25.328 31.917,-10.33 73.244,4.919 112.577,17.624 10.837,3.501 33.131,11.804 36.853,0.833 2.115,-6.233 -8.018,-11.988 -14.763,-15.274 C 356.887,73.608 312.162,64.025 275.72,48.906 c -1.908,-0.621 -8.7,3.843 -6.816,-0.324 10.694,-11.2 25.805,-10.954 39.771,-12.692 5.622,-0.7 11.034,-2.603 17.008,-3.294 26.229,-3.041 50.338,4.846 68.879,-2.207 6.501,-2.474 12.802,-8.383 8.456,-15.085 C 369.166,7.42 334.164,3.734 299.101,7.199 280.875,9 265.181,8.141 248.117,6.61 215.236,3.657 181.48,18.997 151.607,24.817 135.213,28.012 118.639,26.337 101.404,26.998 68.287,28.264 31.807,30.771 0,33.128 0.995,31.353 1.99,29.578 2.984,27.804 z m 261.605,63.842 c 0.395,11.847 9.998,21.099 12.129,32.457 6.438,0.748 12.617,0.576 16.336,-8.335 -5.655,-8.494 -16.405,-22.274 -28.465,-24.122 z m -43.467,23.451 c -2.333,-0.235 0.908,10.869 4.329,4.76 -2.22,-1.369 -3.948,-2.875 -4.329,-4.76 z m 34.5,21.673 c -11.813,-7.808 -30.909,-17.961 -31.703,-3.777 -8.923,-9.287 -27.699,-17.935 -34.863,-4.381 7.407,-3.651 15.946,-0.771 21.513,7.394 -0.996,1.774 -1.99,3.55 -2.985,5.324 4.788,2.848 9.016,3.707 13.418,5.189 8.938,-5.838 28.133,3.156 34.62,-9.749 z m -64.013,-4.395 c 4.305,3.021 6.208,6.721 12.316,9.237 0.995,-1.775 1.99,-3.551 2.984,-5.325 -2.4,-4.755 -11.471,-9.038 -15.3,-3.912 z"
               id="path15-7"
               style="fill-rule:evenodd"
               inkscape:connector-curvature="0" />
            <path
               d="m 320.291,21.408 c -1.362,-2.508 -1.234,5.898 -0.82,7.705 3.498,-0.554 0.371,-5.536 0.82,-7.705 z"
               id="path17-6"
               style="fill-rule:evenodd"
               inkscape:connector-curvature="0" />
            <path
               d="m 239.77,96.394 c -2.115,0.449 -3.981,1.787 -5.646,3.832 -0.551,-3.857 6.066,-4.896 7.354,-11.038 -5.153,2.885 -9.686,10.019 -12.503,13.983 3.877,-1.264 7.735,-2.605 10.795,-6.777 z"
               id="path19-1"
               style="fill-rule:evenodd"
               inkscape:connector-curvature="0" />
            <path
               d="m 61.931,91.17 c 1.902,1.954 2.553,4.263 1.951,6.924 -16.353,-0.565 -31.533,3.027 -47.544,3.672 15.331,5.78 32.779,-3.897 50.486,1.477 -0.191,-3.683 -1.925,-6.93 -2.231,-10.58 1.717,-3.636 5.314,-0.588 7.032,-4.223 -20.932,-0.899 -40.87,1.712 -60.396,5.797 14.697,1.758 33.589,-4.559 50.702,-3.067 z"
               id="path21-4"
               style="fill-rule:evenodd"
               inkscape:connector-curvature="0" />
          </g>
          <path
             id="path3234"
             d="M 192.85715,538.07647 127.14286,423.79076"
             style="fill:none;stroke:#000000;stroke-width:4;stroke-linecap:butt;stroke-linejoin:miter;stroke-miterlimit:4;stroke-opacity:1;stroke-dasharray:none;marker-end:url(#Arrow2Mend)"
             inkscape:connector-curvature="0" />
          <path
             id="path3234-2"
             d="m 193.46508,352.93031 130.62111,17.82466"
             style="fill:none;stroke:#000000;stroke-width:4;stroke-linecap:butt;stroke-linejoin:miter;stroke-miterlimit:4;stroke-opacity:1;stroke-dasharray:none;marker-end:url(#Arrow2Mend)"
             inkscape:connector-curvature="0" />
          <path
             id="path3234-8"
             d="M 416.72107,467.89521 311.4631,547.26995"
             style="fill:none;stroke:#000000;stroke-width:4;stroke-linecap:butt;stroke-linejoin:miter;stroke-miterlimit:4;stroke-opacity:1;stroke-dasharray:none;marker-end:url(#Arrow2Mend)"
             inkscape:connector-curvature="0" />
        </g>
        <g
           id="g5231"
           transform="translate(-20.203051,-125.25892)">
          <path
             transform="matrix(0.94280904,0,0,0.98994951,45.038764,139.40647)"
             d="m 127.27922,182.66682 c 0,22.31568 -18.99495,40.40611 -42.426406,40.40611 -23.431458,0 -42.426407,-18.09043 -42.426407,-40.40611 0,-22.31567 18.994949,-40.4061 42.426407,-40.4061 23.431456,0 42.426406,18.09043 42.426406,40.4061 z"
             sodipodi:ry="40.406101"
             sodipodi:rx="42.426407"
             sodipodi:cy="182.66682"
             sodipodi:cx="84.852814"
             id="path5012"
             style="color:#000000;fill:#5f8dd3;fill-opacity:1;fill-rule:nonzero;stroke:#5f8dd3;stroke-width:0;stroke-linecap:butt;stroke-linejoin:miter;stroke-miterlimit:4;stroke-opacity:1;stroke-dasharray:none;stroke-dashoffset:0;marker:none;visibility:visible;display:inline;overflow:visible;enable-background:accumulate"
             sodipodi:type="arc" />
          <g
             id="g5219">
            <g
               id="g834"
               transform="matrix(-0.03992726,0.11310877,-0.11310877,-0.03992726,165.47337,303.92507)">
              <path
                 transform="matrix(-0.97454,0.224211,0.224211,0.97454,434.7533,-39.90828)"
                 id="path693"
                 d="m 130.58,19.2281 c 0.848,0 152.626,249.2889 152.626,249.2889 0,0 -45.788,26.286 -44.94,26.286 0.848,0 -125.492,-194.174 -107.686,-275.5749 z"
                 style="font-size:12px;fill:#dadadb;fill-rule:evenodd;stroke:#000000;stroke-width:10.00000572;stroke-linejoin:round;stroke-dasharray:none"
                 inkscape:connector-curvature="0" />
              <path
                 id="path596"
                 d="m 267.3664,300.285 c 0,0 -45.4019,119.0532 -36.9992,136.7337 -0.3631,10.7858 -33.7965,59.4537 -55.4097,59.9259 -18.6363,1.1717 -79.9342,-13.4894 -70.1064,-73.7501 11.6856,-61.9974 61.9556,-40.508 81.8308,-42.8379 19.8759,-2.3306 53.6582,-79.181 30.2135,-95.5688 26.1647,6.88 49.8112,17.2749 50.471,15.4972 z m -89.3556,88.1777 c -67.7877,-17.8794 -80.96695,88.4602 -20.5873,94.693 67.695,2.8793 67.1257,-87.1263 20.5873,-94.693 z"
                 style="font-size:12px;fill:#3f3f3f;fill-rule:evenodd;stroke:#000000;stroke-width:10;stroke-linejoin:bevel;stroke-dasharray:none"
                 inkscape:connector-curvature="0" />
              <path
                 transform="matrix(0.984591,0.174877,-0.174877,0.984591,41.2727,-35.37063)"
                 id="path674"
                 d="m 130.58,19.2281 c 0.848,0 152.626,249.2889 152.626,249.2889 0,0 -45.788,26.286 -44.94,26.286 0.848,0 -125.492,-194.174 -107.686,-275.5749 z"
                 style="font-size:12px;fill:#dadadb;fill-rule:evenodd;stroke:#000000;stroke-width:9.99999332;stroke-linejoin:bevel;stroke-dasharray:none"
                 inkscape:connector-curvature="0" />
              <path
                 transform="translate(161.5948,57.16911)"
                 sodipodi:nodetypes="ccc"
                 id="path710"
                 d="m 81.4005,200.683 c -15.2626,0.848 -17.8063,24.59 0,25.438 16.9585,-0.848 16.9587,-25.438 0,-25.438 z"
                 style="font-size:12px;fill:none;stroke:#000000;stroke-width:6.25;stroke-dasharray:none"
                 inkscape:connector-curvature="0" />
              <path
                 transform="translate(161.5948,57.16911)"
                 id="path711"
                 d="m 69.5296,209.163 c 1.6959,0 16.9585,15.262 16.9585,15.262"
                 style="font-size:12px;fill:none;stroke:#000000;stroke-width:6.25;stroke-dasharray:none"
                 inkscape:connector-curvature="0" />
              <path
                 transform="translate(161.5948,57.16911)"
                 sodipodi:nodetypes="cc"
                 id="path712"
                 d="m 76.313,203.227 c 0.8479,0 16.1105,15.263 16.1105,15.263"
                 style="font-size:12px;fill:none;stroke:#000000;stroke-width:6.25;stroke-dasharray:none"
                 inkscape:connector-curvature="0" />
              <path
                 sodipodi:nodetypes="cccc"
                 id="path717"
                 d="m 311.59912,21.2822 c 0.848,0 -61.05,186.5428 -61.05,186.5428 0,0 6.62825,12.79688 9.17125,11.94888 2.544,-0.848 58.66275,-189.16448 51.87875,-198.49168 z"
                 style="font-size:12px;fill:#e6ffff;fill-opacity:0.75;fill-rule:evenodd;stroke-width:1pt"
                 inkscape:connector-curvature="0" />
              <path
                 transform="translate(-3.75,3.75)"
                 sodipodi:nodetypes="ccccc"
                 id="path718"
                 d="m 236.859,262.031 3.531,-4.948 16.242,15.525 -3.951,4.1 -15.822,-14.677 z"
                 style="font-size:12px;fill-opacity:0.31851896;fill-rule:evenodd;stroke-width:1pt"
                 inkscape:connector-curvature="0" />
              <path
                 id="path590"
                 d="m 319.2507,379.5357 c 66.8021,-21.2687 85.3169,84.2729 25.3274,93.5368 -67.4644,6.2828 -71.4259,-83.6375 -25.3274,-93.5368 z M 225.5702,295.967 c 0,0 51.3366,116.6173 43.8343,134.6983 0.9056,10.7538 36.7461,57.6774 58.3558,57.0612 18.6716,0.2322 79.154,-17.4955 66.3056,-77.1853 -14.7911,-61.3307 -63.9159,-37.3384 -83.8832,-38.665 -19.9681,-1.3273 -57.5756,-76.38 -34.9854,-93.9271 -25.7853,8.1882 -48.8787,19.7601 -49.6271,18.0179 z"
                 style="font-size:12px;fill:#3f3f40;fill-rule:evenodd;stroke:#000000;stroke-width:10;stroke-linejoin:bevel;stroke-dasharray:none"
                 inkscape:connector-curvature="0" />
            </g>
          </g>
        </g>
        <g
           id="g5211"
           transform="translate(-11.111678,-160.61425)">
          <path
             transform="matrix(0.94280904,0,0,0.98994951,604.05922,236.98517)"
             d="m 127.27922,182.66682 c 0,22.31568 -18.99495,40.40611 -42.426406,40.40611 -23.431458,0 -42.426407,-18.09043 -42.426407,-40.40611 0,-22.31567 18.994949,-40.4061 42.426407,-40.4061 23.431456,0 42.426406,18.09043 42.426406,40.4061 z"
             sodipodi:ry="40.406101"
             sodipodi:rx="42.426407"
             sodipodi:cy="182.66682"
             sodipodi:cx="84.852814"
             id="path5012-7"
             style="color:#000000;fill:#5f8dd3;fill-opacity:1;fill-rule:nonzero;stroke:#5f8dd3;stroke-width:0;stroke-linecap:butt;stroke-linejoin:miter;stroke-miterlimit:4;stroke-opacity:1;stroke-dasharray:none;stroke-dashoffset:0;marker:none;visibility:visible;display:inline;overflow:visible;enable-background:accumulate"
             sodipodi:type="arc" />
          <g
             transform="matrix(0.41192901,0,0,0.41192901,663.68554,388.37838)"
             id="g3">
            <path
               d="m 103.364,70.862 c 0,17.492 1.354,35.026 2.986,52.438 1.077,11.449 -9.533,11.378 -17.641,11.378 -23.476,0 -46.95,0 -70.425,0 C 7.98,134.678 0.712,130.959 1.816,119.887 3.927,98.679 4.514,77.285 3.626,55.993 3.213,46.02 2.537,36.06 1.663,26.12 1.155,20.352 -0.391,14.395 3.687,9.446 9.278,2.659 24.572,4.188 32.42,3.618 43.058,2.845 53.698,2.074 64.338,1.303 c 7.889,-0.572 12.06,1.861 18.599,6.813 7.138,5.405 21.452,15.054 23.442,24.551 0.581,2.769 -1.017,6.928 -1.361,9.683 -1.18,9.45 -1.654,18.992 -1.654,28.512"
               id="path5-1"
               style="fill:#ffffff"
               inkscape:connector-curvature="0" />
            <path
               d="M 12.903,4.017 C -5.532,4.011 0.971,28.861 1.707,39.649 3.318,63.31 3.414,86.981 1.602,110.633 c -0.9,11.771 -3.336,25.059 13.619,25.059 8.92,0 17.842,0 26.763,0 13.254,0 26.509,0 39.762,0 6.703,0 19.252,2.044 23.727,-4.242 2.963,-4.162 1.765,-9.427 1.365,-14.116 -0.825,-9.673 -1.517,-19.358 -1.98,-29.055 -0.856,-17.891 -0.955,-36.197 2.406,-53.864 C 108.72,26.766 94.666,16.582 89.805,12.467 84.072,7.608 76.001,-0.558 67.874,0.03 49.551,1.358 31.229,2.687 12.903,4.017 M 2.351,124.334 C 5.691,108.302 5.047,90.235 5.047,73.987 5.047,55.254 3.885,36.429 1.894,17.803 0.521,4.96 16.546,5.785 24.888,5.18 37.69,4.252 50.491,3.323 63.292,2.395 c 9.825,-0.712 14.834,2.88 22.663,9.336 6.025,4.973 20.606,14.843 19.037,23.879 -3.314,19.064 -2.98,38.628 -1.896,57.875 0.479,8.507 1.108,17.008 1.848,25.498 0.451,5.193 1.449,11.74 -4.766,13.979 -4.647,1.676 -11.105,0.701 -15.906,0.701 -10.801,0 -21.6,0 -32.4,0 -10.036,0 -20.072,0 -30.107,0 -7.042,0 -19.414,0.673 -19.414,-9.329"
               id="path7-8"
               style="fill:#737373"
               inkscape:connector-curvature="0" />
            <path
               d="m 96.216,71.548 c 0,15.745 3.492,32.133 2.623,47.755 0,11.791 -14.245,9.237 -22.188,9.237 -13.27,0 -26.541,0 -39.811,0 -7.172,0 -22.119,2.45 -26.297,-5.213 -2.107,-3.865 -0.383,-9.886 -0.064,-13.963 0.912,-11.651 1.368,-23.341 1.368,-35.027 0,-11.417 -0.486,-22.835 -1.193,-34.229 C 10.297,34.364 8.577,27.427 9.671,21.683 11.869,10.123 29.24,12.087 38.019,11.4 44.475,10.892 50.931,10.387 57.387,9.881 59.289,9.73 66.253,7.988 67.932,9.052 c 1.81,0 2.909,17.572 3.56,19.592 2.722,8.433 10.092,6.877 17.566,7.239 4.452,0.216 10.204,-0.769 9.331,4.646 -1.647,10.231 -2.173,20.67 -2.173,31.019"
               id="path9-9"
               style="fill:#f4f2f2"
               inkscape:connector-curvature="0" />
            <path
               d="m 68.272,5.029 c -0.822,5.697 -1.486,11.421 -1.957,17.158 -0.38,4.642 -2.701,16.41 1.112,20.224 8.04,8.04 28.983,-3.645 36.874,-7.78 -8.691,1.348 -20.479,3.727 -28.868,0.27 -6.818,-2.81 -6.379,-23.374 -7.161,-29.872"
               id="path11-2"
               style="fill:#adadad"
               inkscape:connector-curvature="0" />
          </g>
        </g>
        <g
           id="g5204"
           transform="translate(-409.11178,188.89852)">
          <path
             transform="matrix(0.94280904,0,0,0.98994951,734.3689,181.42678)"
             d="m 127.27922,182.66682 c 0,22.31568 -18.99495,40.40611 -42.426406,40.40611 -23.431458,0 -42.426407,-18.09043 -42.426407,-40.40611 0,-22.31567 18.994949,-40.4061 42.426407,-40.4061 23.431456,0 42.426406,18.09043 42.426406,40.4061 z"
             sodipodi:ry="40.406101"
             sodipodi:rx="42.426407"
             sodipodi:cy="182.66682"
             sodipodi:cx="84.852814"
             id="path5012-7-9"
             style="color:#000000;fill:#5f8dd3;fill-opacity:1;fill-rule:nonzero;stroke:#5f8dd3;stroke-width:0;stroke-linecap:butt;stroke-linejoin:miter;stroke-miterlimit:4;stroke-opacity:1;stroke-dasharray:none;stroke-dashoffset:0;marker:none;visibility:visible;display:inline;overflow:visible;enable-background:accumulate"
             sodipodi:type="arc" />
          <g
             transform="matrix(0.18609245,0,0,0.1013903,775.67657,335.53681)"
             id="g630">
            <path
               id="path2208"
               d="M 162.9458,464.0036 C 117.1722,453.52799 71.368015,415.32694 76.40714,364.37792 74.139844,309.73396 60.896952,251.87909 80.840821,199.264 102.28376,157.18925 120.16844,113.06225 142.06135,71.436883 183.02936,20.194678 278.80716,27.517242 303.27654,91.620571 c 25.94223,46.905409 28.49581,102.786199 54.22444,149.472249 22.70019,32.25612 51.25795,67.82794 36.60345,110.1106 -6.93119,48.89388 -44.55409,87.4681 -94.10629,93.2518 -44.97149,12.33162 -90.13124,21.35242 -137.05234,19.54838 z"
               style="font-size:12px;fill:#c7c7c7"
               inkscape:connector-curvature="0" />
            <path
               id="path2206"
               d="M 156.4458,462.0787 C 111.55314,448.18087 69.768277,408.58283 76.328812,358.07175 73.767491,294.44064 58.709677,224.21119 96.504311,167.42611 124.43289,131.39848 121.44027,75.155104 165.92163,52.605682 212.16634,24.427024 283.25591,38.832359 303.56342,92.596579 c 20.68442,40.541511 27.7468,86.061771 42.17162,128.567661 18.10616,37.75239 59.25341,70.26761 49.30914,116.55204 -4.1636,42.21012 -26.05141,89.49912 -71.70147,98.34386 -53.71465,17.21554 -110.01514,31.78901 -166.89691,26.01856 z m 40,-9.2719 c 21.77591,-29.80617 8.54999,-74.60273 -10.56206,-102.20101 -8.15419,-20.34368 -58.61957,-63.32145 -51.70193,-15.70113 -29.81525,25.4899 -48.184973,-65.62172 -45.22825,-6.80059 3.365231,23.35868 22.39524,57.09399 42.26437,24.89924 16.82305,-6.08521 61.33358,-0.30265 33.79423,17.84395 6.7399,21.08854 43.30324,71.5897 -1.07755,71.95044 -40.87759,2.71155 24.04791,22.53515 32.51119,10.0091 z M 180.517,449.702 c -11.55635,-12.47078 9.81617,5.05222 0,0 z m -27.4942,-2.7089 c -10.29807,-12.57431 9.37259,5.43484 0,0 z m 37.105,-12.423 c -3.16382,-11.23534 4.44319,4.66998 0,0 z m 7.9394,-5.5498 c -10.80051,-11.45405 6.3933,2.97052 0,0 z m -12.1214,0.4907 c 5.05743,-2.77405 -3.52594,7.17717 0,0 z m 4,-12.4409 c -10.37695,-12.7849 5.69614,1.09523 0,0 z m -1.5,-17.9773 c -16.36782,2.94135 3.1883,-15.31197 0,0 z m -12.25,-12.9663 c -19.70655,-6.84306 10.49578,-13.50169 0,0 z m 16.9167,-2.0564 c 2.09428,-5.77318 1.84192,5.63734 0,0 z m 1.0222,-2.7138 c -19.70952,-8.73489 15.03026,0.51733 0,0 z m -88.8146,-26.7532 c -11.228279,-8.02699 4.88861,-1.70649 0,0 z m 5.7197,-2.9198 c -11.972484,-5.26732 5.11739,-2.18051 0,0 z m 51.1156,-2.8272 c 3.67871,-12.87157 8.36711,10.63832 0,0 z m -1.5516,-18.2351 c 5.95527,-2.74788 -5.73653,12.37734 0,0 z M 149.031,317.8201 c -9.12022,-17.32228 10.51097,6.63462 0,0 z m -15.4613,-4.2879 c 2.06198,-8.60138 3.54953,7.20056 0,0 z m 92.7723,136.6526 c 27.56725,-11.17275 -4.3976,-73.33279 -6.55977,-31.22056 -0.21089,10.52169 -3.47344,23.8303 6.55977,31.22056 z m -4.7295,-36.7814 c -5.68213,-6.02854 4.81744,0.94784 0,0 z m 33.7863,32.5061 c 13.88417,-2.40544 -6.7389,-6.08503 0,0 z m -4.453,-4.8394 c -3.12241,-6.09125 -2.64154,6.43114 0,0 z m 35.2786,-4.0499 c -7.12248,-20.46286 10.54934,-64.36312 -24.87359,-52.73868 3.90166,40.61464 -41.14393,0.0481 -22.05626,-24.09612 16.96922,-38.51268 -35.3357,-34.69561 -17.1348,3.07457 -0.99472,35.57279 34.09291,50.19043 47.9594,77.2456 5.28541,3.38751 11.88149,-0.32572 16.10525,-3.48537 z m -13.1743,-32.8645 c -5.18474,-7.15194 4.2298,-0.74447 0,0 z M 232.9,351.9844 c -4.88765,-10.78613 5.20474,4.08167 0,0 z m -82.6435,76.3357 c 1.76772,-16.38187 -11.79088,8.12186 0,0 z m 10.6243,-1.6717 c 4.80416,-14.99158 -8.65537,-73.80097 -16.20226,-35.45157 0.50563,13.06922 3.73725,28.53051 16.20226,35.45157 z m -7.7475,-13.6408 c -3.89437,-6.51853 5.67551,0.97451 0,0 z m -4.9375,-15.5998 c -13.68291,-5.40688 7.37379,-1.26706 0,0 z m 151.4933,28.7018 c 6.15553,-13.53089 -10.67726,5.28363 0,0 z m 11.4402,-4.7895 c 13.30425,-11.86748 -12.85171,-14.86385 0,0 z m -190.6835,0.75 c 0.20302,-7.65259 -4.07906,4.60224 0,0 z m 206.0905,-5.3749 c 5.28963,-22.72381 -12.93784,8.91356 0,0 z m -110.1647,0.0421 c -3.46187,-20.32461 -16.23896,9.46329 0,0 z M 116.55,416.3409 c -4.75018,3.63442 8.29564,0.82386 0,0 z m -8.6042,-2.2118 c 3.02143,-6.39909 -5.90561,2.12456 0,0 z m 3.8196,-3.2307 c 2.76124,-11.79946 -6.4901,6.60342 0,0 z m 58.4297,-1.3045 c 2.01133,-14.54189 -8.91007,3.26393 0,0 z m 6.1796,-2.0375 c -3.03004,-6.36197 -1.90687,6.6078 0,0 z m 144.3115,-4.7363 c 7.68475,-27.48656 -28.78644,-0.28465 0,0 z m -88.7404,-1.75 c -0.16469,-6.87281 -3.88601,4.71072 0,0 z m -65.1875,-3.9375 c -6.21045,-2.32046 4.0322,6.50872 0,0 z m -47.1139,-0.6624 c -5.561,-8.40977 -3.68619,9.24386 0,0 z m 132.9041,-0.8999 c -0.98211,-10.39326 -5.31423,3.90227 0,0 z m 48.3973,-3.0002 c 0.979,-18.46835 -17.08484,4.04008 0,0 z m -155.1875,-5.4375 c -6.21045,-2.32046 4.0322,6.50872 0,0 z m -57.81247,-0.5625 c 0.993651,-7.79939 -3.58165,4.22332 0,0 z m 23.92607,0.089 c 3.6608,-29.34404 -32.346147,1.29271 0,0 z m 208.0739,-4.934 c 3.82158,-11.48597 -11.42977,0.57548 0,0 z m -15.1042,-4.5694 c 0.0442,-16.38814 -15.50493,5.60987 0,0 z m 21.1042,-3.0386 c 4.91799,-25.15177 -37.23751,-17.75602 0,0 z m -39.4627,0.8354 c 2.24741,-19.21235 -16.08143,9.19507 0,0 z m -40.5373,-4.5374 c -7.72815,-3.2541 2.54507,7.88273 0,0 z m 111,1.0369 c -6.89267,0.88314 10.03058,8.64747 0,0 z M 87.94583,367.0701 c -0.02303,-7.73107 -3.882016,5.25553 0,0 z m 209.49997,-2.622 c -7.64873,-15.11228 -5.67552,15.22931 0,0 z m 55.5,2.777 c 4.37827,-9.15733 -8.53746,0.47404 0,0 z m -72,-0.655 c 1.47591,-7.60561 -5.68112,4.32804 0,0 z m -70,-2.0591 c -4.53986,-0.81739 4.80794,6.55494 0,0 z m 150.8165,-1.7681 c -3.01399,-13.67877 -2.54241,9.81778 0,0 z m -88.8165,-4.6728 c -0.0229,-7.73117 -3.88213,5.25539 0,0 z m 13.8187,-8.4019 c -2.76011,-12.93344 -0.90113,-61.37226 -19.01257,-40.40731 -2.22926,14.23382 -6.16506,49.72885 19.01257,40.40731 z M 275.9211,335.505 c -3.44093,-10.2595 5.49198,6.63048 0,0 z m 80.8167,22.3949 c 5.54183,-13.37205 -12.0577,1.16719 0,0 z m -25.9724,-2.0015 c 2.76124,-11.79946 -6.4901,6.60342 0,0 z m -244.81957,0.1717 c -1.563229,-5.6791 -1.70089,4.8298 0,0 z m 117.99627,-0.75 c 13.38144,-22.71049 -31.55157,-40.86461 -13.40058,-10.50758 3.9687,4.11294 8.87398,7.08666 13.40058,10.50758 z m 14.9371,-0.8909 c -3.31775,-6.53406 -2.13421,6.60342 0,0 z m -23.9334,-0.8591 c -1.79272,-11.30755 -3.80659,7.89789 0,0 z m 101.7505,-0.75 c -2.70767,-9.56709 -4.85994,8.46055 0,0 z m -105.9309,-4 c 3.95639,-15.07406 -16.2097,0.0139 0,0 z m 21.5906,-2.6047 c 4.492,-12.87504 -13.05155,2.0016 0,0 z m 147.7686,-4.1702 c 4.93368,-22.15708 -24.71527,-5.20889 0,0 z m 11.4372,-3.4167 c 10.94172,-13.96746 -11.92035,4.1555 0,0 z m -190.616,-0.9994 c 6.17254,-9.93585 -5.59684,1.30569 0,0 z m 60.5,-0.559 0.0408,-0.42774 -0.0408,0.42774 z m 57.1078,-3.4268 c -5.61999,-13.78274 -6.57743,8.99963 0,0 z M 88.94583,332.7367 c -1.361361,-9.28657 -4.743107,7.36195 0,0 z M 368.5804,332.58 c 2.9229,-26.79928 -38.74767,-15.65585 0,0 z m -190.6346,-0.5099 c -0.16469,-6.87281 -3.88601,4.71072 0,0 z m 33,-1 c -2.95019,-5.74978 -1.65608,6.40211 0,0 z m 115,-2 c -1.56324,-5.67909 -1.70088,4.82982 0,0 z m -15.0354,-0.75 c 4.4772,-8.77853 -10.51025,-1.33569 0,0 z m 17.0354,-5.703 c 2.5971,-18.3215 -19.08844,2.27018 0,0 z m -121,-3.6069 c 16.75603,-23.75962 -35.38938,-67.56517 -26.59566,-22.34966 3.11181,11.7432 12.76311,24.9396 26.59566,22.34966 z m -10.3166,-29.5901 c -9.80314,-7.27476 9.82663,-2.70328 0,0 z m 24.0898,28.5505 c -12.04932,-13.39307 -7.94514,16.65764 0,0 z m 17.2268,-1.4319 c 6.82697,-12.20024 -8.96619,-1.59309 0,0 z m -64,0.5314 c -1.56324,-5.67909 -1.70088,4.82982 0,0 z m -55.301,-4.043 c 11.6486,-5.22634 -6.97207,-8.16391 0,0 z m 42.301,-1.9219 c 2.48375,-13.26637 -11.84849,3.24266 0,0 z m 25,-0.5599 c -7.06689,-18.32969 -11.61975,14.29312 0,0 z m 127,-0.4162 c 4.67555,-8.49867 -5.65885,2.52534 0,0 z m -145,-2.559 c -1.913,-10.70313 -2.01106,5.79295 0,0 z m 62.9852,-2.5278 c -0.86496,-20.65745 -18.91843,2.58035 0,0 z m -70.309,-4.7413 c -11.5873,-19.55875 -5.18633,-46.30352 5.83534,-41.69937 -6.7557,-14.7395 -16.00355,-60.66984 9.54537,-44.03926 1.41569,46.45722 58.67658,2.55581 16.98501,-12.35219 -17.90136,-0.254 -51.21509,-25.45562 -19.49406,-28.74055 7.84331,16.91288 34.67449,32.54156 25.73001,1.20005 0.04,-10.72647 -3.88055,-68.70626 14.0669,-47.90943 -1.41229,20.08483 27.45157,49.66693 3.94788,57.18864 -0.56707,16.0629 37.9832,63.40024 26.78596,22.22566 -8.84369,-36.50982 1.42679,-72.02571 4.48889,-108.315909 -7.70808,-30.235594 -47.18051,-33.459553 -73.02332,-33.84508 -36.10649,11.193627 -40.03479,55.120029 -36.79609,87.024259 2.39722,31.63081 -22.61583,57.74362 0.57238,85.61894 -6.39063,21.90348 -3.78901,54.66308 21.35573,63.64424 z m -12.0095,-20.8976 c -1.53824,-6.94981 4.55906,4.35317 0,0 z m -4.6667,-3.8924 c 5.05743,-2.77405 -3.52594,7.17717 0,0 z m 1,-8 c 5.05743,-2.77405 -3.52594,7.17717 0,0 z m 7.3617,-31.9409 c -14.42444,-0.2899 1.3368,-15.51087 0,0 z m 36.1383,-9.5 c 3.54259,-4.4633 -0.24052,5.95845 0,0 z m 13.7292,-2.1875 c -0.64997,-7.64916 4.69357,4.81481 0,0 z m -52.6232,-20.9181 c -10.83399,-20.86175 12.054,9.86377 0,0 z m 78.394,-3.3944 c 4.05768,-8.55925 1.58971,7.47598 0,0 z m 7,-26.941 c -4.15221,-7.56891 5.23967,2.59602 0,0 z m -7.7708,-8.7465 c -0.64997,-7.64916 4.69357,4.81481 0,0 z m -76.0562,-7.4722 c -3.17603,-9.67657 9.98811,13.82839 0,0 z m 28.9617,1.5739 c -23.29702,3.61369 -1.22102,-21.8887 0,0 z m 7.8653,-3.554 c -13.77829,-3.34448 9.8594,-2.25115 0,0 z m -29.6517,-16.9514 c -5.14681,-18.44933 2.42639,-69.569562 22.92934,-54.242812 1.08946,19.235062 -2.51946,46.212162 -22.92934,54.242812 z m -14.3483,-5.4088 c 1.56324,-5.67909 1.70088,4.82982 0,0 z m 81.5427,-4.9309 c 1.75339,-6.18714 2.24664,5.69678 0,0 z m -81.0427,-4.0691 c 5.00643,-3.40277 -3.45901,12.48761 0,0 z m 91.0313,-2.2932 c -10.55653,-2.26848 2.84104,-5.50582 0,0 z m -45.0368,-1.713 c 0.84389,-13.92721 8.83189,9.278 0,0 z m 18.5055,-9.5529 c 5.05743,-2.77405 -3.52594,7.17717 0,0 z m 28.5966,-9.2847 c -2.60948,-6.768324 5.80575,3.28922 0,0 z m -29.4748,-6.33281 c 3.40607,-24.30704 22.27687,10.60243 0,0 z m 30.5449,0.50991 c -14.34431,-7.698629 9.57723,-2.949074 0,0 z m -36.134,-7.28054 c -1.88055,-9.538334 6.65124,4.874691 0,0 z m 25.644,-4.71992 c -0.17375,-13.571734 5.24752,8.301166 0,0 z m -33.6066,-2.21956 c -1.27274,-9.834391 7.05177,5.33517 0,0 z m -27.5701,-4.11331 c 1.56326,-5.679093 1.70087,4.829829 0,0 z m 47.5,223.93033 c -0.25804,-14.49634 -4.38224,9.10323 0,0 z m 160.0737,0.2959 c -1.39052,5.46045 12.77704,0.18088 0,0 z m -84.0737,0.7738 c 0.20302,-7.65259 -4.07906,4.60224 0,0 z m 30.5,-0.8334 c 1.80199,-13.5713 -7.72658,6.67354 0,0 z m -171.2,-0.3666 c 6.47395,-15.82559 -14.66773,6.304 0,0 z m 25.0165,-1.5415 c -4.84368,-14.20106 -10.09717,11.18403 0,0 z m 65.9835,1.5415 c 2.80692,-26.70029 -34.74642,-15.31571 0,0 z m 89.8771,-0.401 c -8.67424,-25.61692 2.62999,-75.02591 -40.7142,-59.78853 -31.59183,-14.48367 17.09631,-68.39042 -28.84682,-56.39352 -7.3519,38.87534 34.80717,64.57722 51.15307,96.40021 2.22253,9.00037 8.89621,17.86491 18.40795,19.78184 z M 319.1958,262.451 c -16.95187,-10.4342 11.96969,-4.89173 0,0 z m -21.2041,-10.2953 c -9.74765,-7.08151 4.48537,-1.51295 0,0 z m -1.5459,-6.0856 c 3.52163,-2.87818 -1.56244,6.92367 0,0 z m -26.8634,-50.8096 c 5.12315,-15.18091 3.45851,12.05108 0,0 z m 85.4759,102.5221 c 5.51472,-19.97605 -18.18137,-2.15627 0,0 z m -69.5274,-3.548 c 2.21982,-24.26888 -17.31238,3.14373 0,0 z m 90.5274,-0.452 c -4.25051,4.61552 9.90828,-0.91292 0,0 z m -250.103,-3.2011 c -0.81852,-15.48416 -13.30682,4.60278 0,0 z m 189.9905,3.5 c 2.00443,-13.06068 -12.66696,4.92425 0,0 z m -183.0739,-2.6005 -0.18032,-0.43135 0.18032,0.43135 z m -41.93664,0.1018 c 38.33415,-9.86634 4.78435,-90.19001 -6.263878,-32.39772 -1.079576,11.03947 0.446606,22.76178 6.263878,32.39772 z m 3.63045,-24.94 c -15.579866,-19.1024 20.0496,-6.92965 0,0 z m 247.38009,25.3215 c -0.35094,-15.65814 -10.75738,9.235 0,0 z m -123,-0.8811 c 0.47356,-11.65925 -8.90278,6.9513 0,0 z m -42.8875,-5.3006 c -4.25051,4.61552 9.90828,-0.91292 0,0 z m -37.1125,-1.2373 c 0.38608,-15.88574 -15.06203,5.6386 0,0 z m 204.8104,-5.2252 c -1.7832,-18.83506 -9.14608,6.17963 0,0 z m 21.8792,-1.8366 c -6.88517,-25.0002 -27.21439,-7.02201 0,0 z m -90.6896,2.709 c 1.99367,-16.69922 -18.26285,-3.2227 0,0 z m 79.924,-0.8724 c 4.78938,-19.34799 -16.90643,0.21986 0,0 z m -147.1741,-5.8335 c -5.133,-2.14137 2.56326,4.8232 0,0 z m 76.4214,0.9285 c 9.20574,-22.24429 -25.14261,-1.79539 0,0 z m -82.1713,-1.845 c -1.95839,-5.37954 -1.12851,4.80542 0,0 z m -76.3421,-1.0509 c 4.06409,-13.4041 -12.70316,3.1755 0,0 z m 109.5173,-2.0529 c 16.39981,-22.44408 -28.94453,-23.09303 0,0 z m 131.3248,-2.3962 c 1.07114,-6.9976 -3.30889,3.35733 0,0 z m -168.4653,-3.5418 c -2.16104,-28.7786 -32.11544,-7.60983 0,0 z m -71.0347,-1.2582 c 14.04375,-10.61876 -11.22461,-12.26597 0,0 z m 100.6758,-2.7974 c 1.88098,-16.43913 -14.53909,5.79727 0,0 z m -92.6758,-0.7956 c 1.53144,-7.31626 -5.01158,4.11787 0,0 z m 154.3762,-1.1449 c -2.26008,-7.77266 -2.57808,6.4267 0,0 z m -110.0393,-0.1323 c 3.59066,-16.47894 -18.61927,1.23371 0,0 z m 178.564,-2.3911 c -5.13544,1.82659 8.19774,1.8968 0,0 z m -87.7009,-0.1387 c 4.83454,-15.03696 -17.98204,-0.55314 0,0 z m -52.5229,-3.401 c 0.15849,-12.61107 -6.71796,7.8109 0,0 z m 137.3229,0.7234 c 1.23984,-10.57186 -8.45623,4.69197 0,0 z m -72.417,-2.6479 c 2.31413,-19.8629 -19.27113,3.9693 0,0 z m -80.583,-2.597 c -7.67839,-4.58456 3.00334,7.30937 0,0 z m 13.5593,0.0265 c 1.3188,-13.09362 -9.48156,7.45412 0,0 z m -46.5593,-3.3326 c -0.15024,-11.59518 -10.1155,6.22312 0,0 z m -57.3483,-4.106 c 7.69813,-20.10138 -24.571301,-6.46809 0,0 z m -24.65167,-0.9064 c -2.270157,-7.0764 -1.948939,6.75847 0,0 z m 158.99997,-1.559 c -4.12925,-23.11629 -38.99653,-20.0432 -8.51037,-3.06909 l 4.20817,1.68077 4.3022,1.38832 z m -16,-11.5834 c 2.86276,-4.28368 0.28487,4.96326 0,0 z m 43,11.4416 c 1.20982,-22.215 -20.4931,8.51633 0,0 z m 47.0125,-4.345 c -6.42663,-7.48705 3.22605,7.95961 0,0 z m -145.603,2.6333 c 3.83281,-18.64283 -18.31935,4.85316 0,0 z m 119.5857,-3.1224 c -2.16143,-12.42253 -9.32068,8.46524 0,0 z M 123.2952,228.538 c -0.98498,-17.71975 -3.45611,5.97565 0,0 z m 7.1202,-4.183 c 3.55473,-19.7116 -12.47964,11.628 0,0 z m 184.5304,1.8299 c -2.89623,-21.81016 -30.8947,-28.81191 -5.33573,-6.04965 l 5.33573,6.04965 z m -204,-3.0212 c 16.74963,-17.24809 -24.904262,-24.48038 -0.83863,-1.88209 l 0.83863,1.88209 z m 224.1834,-0.3103 c -4.18328,2.76447 9.44131,0.88794 0,0 z m -35.2935,-1.1507 c 2.29434,-13.24088 -9.00622,7.06699 0,0 z M 283.51,216.3009 c -6.79164,0.69399 5.35061,3.95772 0,0 z m -179.5642,-1.2081 c 9.13532,-13.10319 -9.312545,0.37536 0,0 z m 153.6642,1.41 c 1.43328,-10.8625 -7.34862,6.08466 0,0 z m 37.3358,-0.4327 c -1.56324,-5.67909 -1.70088,4.82982 0,0 z m -29.57,-1.8867 c 0.29208,-8.55806 -5.25132,5.82495 0,0 z m 48.225,-1.9421 c 3.5959,-19.36424 -27.16557,-18.00982 0,0 z m 11.845,-3.1712 c -5.96978,-11.19783 -1.56708,4.57564 0,0 z m -115.688,-2.9595 c 0.3388,-8.17915 -5.90727,13.36869 0,0 z m 49.188,-2.0405 c -2.56391,-5.93594 -2.68899,6.09799 0,0 z m -47,-5.9687 c -3.13466,-5.92139 -0.58003,5.93144 0,0 z m 40.3617,-2.5313 c 2.45209,-9.10896 -3.64673,2.13276 0,0 z M 130.4997,185.1572 c -3.14671,-8.78675 -4.64569,6.1505 0,0 z m 190.2695,1.27 c 2.4889,-9.98038 -8.16938,2.29459 0,0 z m -210.8234,-9.3571 c -5.92308,-17.14642 -0.89034,16.9074 0,0 z m 55.3913,6.4226 c -5.08516,-3.87643 2.33383,6.75253 0,0 z m 11.6087,-0.3002 c -6.291,-16.92616 -13.19193,13.71656 0,0 z m 104,-4.5154 c 4.02678,-6.99228 -6.6042,1.08162 0,0 z m -147,-2.6546 c 2.6742,-14.40681 -12.17259,4.32366 0,0 z m 155.1988,-3.4155 -0.39983,-1.18117 0.39983,1.18117 z m 22.8012,3.6856 c 0.36209,-12.19037 -10.30675,6.38267 0,0 z m -12.1766,-4.5554 c -3.71709,-9.39201 -2.67955,8.18617 0,0 z m -26.2084,-1.132 c 5.42015,-10.95204 -8.81449,1.32223 0,0 z m -58.6374,-2.5771 c -7.31162,-12.73548 -2.80532,12.82632 0,0 z m 105.0224,2.4762 c -1.5523,-14.4017 -18.02235,-8.01025 0,0 z M 115.787,167.0598 c 23.52023,-6.07747 -10.58596,-5.2199 0,0 z m 194.1588,0.6173 c 2.70504,-6.1205 -5.00692,2.24914 0,0 z m -15.6383,-1.107 c 2.45209,-9.10896 -3.64673,2.13276 0,0 z m -38.9515,-2.5993 c -2.17337,-13.56238 -7.41696,5.24443 0,0 z m 27.3426,1.1236 c 21.22109,-33.9335 -30.75295,-51.17417 -15.29707,-8.77634 2.85309,5.56782 8.99553,9.2442 15.29707,8.77634 z m -10.0861,-15.691 c -8.45646,-5.55007 8.10652,-2.41446 0,0 z m 33.4371,12.3705 c -4.75899,-5.51041 0.79681,5.43798 0,0 z M 117.9458,156.011 c -4.04597,-3.57539 1.73686,6.00683 0,0 z m 3.6042,-3.6701 c -4.75018,3.63442 8.29564,0.82386 0,0 z m 93.3958,-0.2513 c 4.25183,-20.02137 -17.88842,5.37165 0,0 z m 40.8234,-4.6984 c -1.36178,-6.67872 -1.95023,4.83537 0,0 z M 121.9458,143.511 c -5.05743,-2.77405 3.52594,7.17717 0,0 z m 125,0.5591 c -0.16469,-6.87281 -3.88601,4.71072 0,0 z m 11.8,-7.2 c 5.95298,-20.30236 -19.01306,3.11297 0,0 z m -11.7794,-6.7873 c -5.80667,-2.28224 2.96837,4.21617 0,0 z m 19.9794,-0.8903 c 1.23984,-10.57186 -8.45623,4.69197 0,0 z m -4,-6.1224 c 0.5538,-6.88951 -3.06121,3.76734 0,0 z m -5,-5.1354 c 3.21377,-13.83795 -13.90466,2.91437 0,0 z m 7,0.1354 c -1.56324,-5.67909 -1.70088,4.82982 0,0 z m 9.9521,-14.5578 c -5.72453,3.33177 15.43862,4.18743 0,0 z m 10.393,-27.98536 c -4.02112,-1.254001 5.17709,5.703025 0,0 z m -16.3451,-0.45687 c -1.56326,-5.679093 -1.70087,4.829829 0,0 z M 236.2597,61.5967 c -10.73154,-9.133265 8.2414,12.807712 0,0 z m -8.6589,-0.20504 c -6.19477,-0.365727 4.40749,3.793648 0,0 z m 33.4575,0.39091 c -4.25121,4.59078 9.81063,-0.893172 0,0 z M 222.6957,61.4866 c -4.8714,-2.246783 2.22817,4.734542 0,0 z M 211.2928,49.20269 c -0.83964,-8.825549 -4.39427,6.519997 0,0 z m 14.653,-4.05317 c -5.01908,-8.952532 -6.73493,9.161599 0,0 z"
               style="font-size:12px;fill:#b3b3b3"
               inkscape:connector-curvature="0" />
            <path
               id="path2204"
               d="M 179.9458,462.5053 C 125.96899,463.39647 72.122586,417.16817 76.854193,360.79676 76.661989,312.71317 67.702346,263.43389 76.122517,215.98258 89.620862,173.09276 119.71102,137.23113 130.37251,93.265899 c 13.42127,-25.90017 39.17799,-53.148928 71.048,-48.503785 -51.7531,6.101248 -68.51446,62.181406 -85.78212,103.151456 -19.576162,40.42279 -44.952067,83.98057 -33.451363,130.64036 -2.005417,39.96621 11.298628,79.048 18.652233,115.49598 -12.260112,10.18737 -17.10162,-44.56865 -15.003441,-2.60839 12.196188,32.85752 47.900401,59.54446 83.681031,66.23292 49.77525,-5.20028 103.66194,-6.12302 147.8748,-33.05237 30.98662,-12.35799 45.79305,-47.75009 58.65586,-75.64587 -1.76871,-13.3834 -30.27273,-65.36916 -2.81654,-48.91207 20.21109,30.12343 -15.57565,-66.52939 -10.94967,-38.9944 -32.56954,-31.67544 -32.90336,-76.7642 -52.49276,-114.71698 -19.59769,-28.39567 -13.26309,-73.411375 -48.32006,-90.197718 -34.97233,-10.592618 -2.23757,-16.103969 12.62628,-0.08241 37.86237,31.936941 45.74155,84.614118 60.21321,129.404018 5.52611,46.91301 45.83548,76.39854 58.85111,119.59572 9.75553,41.83344 -7.45997,89.47481 -39.87129,117.18927 -44.57903,24.23445 -97.56691,32.2186 -147.72267,39.0888 -8.52135,0.70343 -17.06881,1.10047 -25.61932,1.15487 z M 99.94356,417.9082 c 2.57149,-10.58145 -8.105887,0.76243 0,0 z M 379.7695,347.7641 c 14.08641,-9.99947 -6.8069,-4.30291 0,0 z M 80.60769,300.5701 c -10.33646,5.19968 8.736249,10.80319 0,0 z M 379.6008,280.6132 c 2.29459,-14.06584 -4.86943,2.25994 0,0 z m -3.655,-4.3431 c 3.67724,-8.40178 -8.43024,1.44228 0,0 z m -241.8418,146.8 c -15.4634,-14.65196 -2.20138,-71.09579 5.91931,-28.32956 2.00761,9.53077 2.52935,21.53076 -5.91931,28.32956 z m -3.6582,-7 c 3.52163,-2.87818 -1.56244,6.92367 0,0 z m 192.5048,-11.1357 c 9.21338,-13.05049 7.14722,-68.55103 23.25136,-49.29094 0.81962,18.90168 -8.60781,37.58362 -23.25136,49.29094 z m 22.0742,-17.281 c -5.89795,-2.51892 2.75945,-2.75626 0,0 z m -97.4403,-46.7836 c 3.58696,-24.11586 -15.76621,-78.48085 3.81073,-83.43638 14.83354,24.48247 20.10291,62.67475 -3.81073,83.43638 z m 10.0236,-27.0497 c -3.45828,5.09614 6.65905,-0.69391 0,0 z m -5.1623,-15.75 c 1.07114,-6.9976 -3.30889,3.35733 0,0 z m 6.5,-7.8776 c 3.77147,-5.65089 -5.80824,0.73493 0,0 z m -4.8166,-20.3391 c -3.73831,2.99301 9.02204,0.62971 0,0 z m 47.2755,61.1501 c -1.65179,-7.70509 3.85369,4.02285 0,0 z m -193.772,-4.1834 c -7.986258,-22.48037 -2.37197,-74.29705 11.32027,-76.36609 1.50263,26.05454 -9.74967,50.60863 -11.32027,76.36609 z m 230.1797,-58 c -12.14197,-16.72776 -28.2425,-56.8628 -17.84974,-64.41992 10.44338,19.60549 23.31193,41.30129 17.84974,64.41992 z M 106.9458,195.273 c 6.26849,-11.64622 25.55182,-59.89026 19.8162,-18.73238 -3.23328,8.78937 -10.19527,16.9984 -19.8162,18.73238 z m 52.5941,-62.0041 c -14.31946,-18.90802 28.47798,-65.692963 13.22117,-22.79968 -3.06934,8.25533 -7.02086,16.41076 -13.22117,22.79968 z M 269.4065,116.029 c -22.96208,-5.45172 -15.56379,-54.734067 0.22335,-18.60731 2.50352,5.43848 7.21251,14.53141 -0.22335,18.60731 z"
               style="font-size:12px;fill:#606060"
               inkscape:connector-curvature="0" />
          </g>
        </g>
      </g>
    </g>
  </g>
</svg>
